<svg xmlns="http://www.w3.org/2000/svg" viewBox="0 0 700 480" role="img" aria-label="Cadillac CT4 rear view illustration">
  <defs>
    <linearGradient id="body" x1="0" y1="0" x2="1" y2="1">
      <stop offset="0" stop-color="#6a727a" />
      <stop offset="0.45" stop-color="#232932" />
      <stop offset="1" stop-color="#10141a" />
    </linearGradient>
    <linearGradient id="glass" x1="0" y1="0" x2="0" y2="1">
      <stop offset="0" stop-color="#d7e7ff" stop-opacity="0.95" />
      <stop offset="1" stop-color="#7f99bb" stop-opacity="0.86" />
    </linearGradient>
    <linearGradient id="trim" x1="0" y1="0" x2="1" y2="1">
      <stop offset="0" stop-color="#f0f4fb" />
      <stop offset="1" stop-color="#8c9eb6" />
    </linearGradient>
  </defs>

  <ellipse cx="352" cy="412" rx="250" ry="38" fill="#000" opacity="0.28" />

  <path d="M87 338c2-63 14-114 47-152 28-32 79-56 154-70 58-10 120-10 180 0 73 13 126 37 154 71 34 39 47 89 49 151 1 19-15 34-34 34H122c-20 0-36-16-35-34z" fill="url(#body)" stroke="#0b0f14" stroke-width="8" />

  <path d="M165 234c26-36 65-57 124-66 38-6 79-6 120 0 57 9 98 30 124 66l-368 0z" fill="#1b222c" opacity="0.84" />
  <path d="M187 235c20-29 52-47 103-54 36-5 75-5 115 0 52 8 85 25 109 54H187z" fill="url(#glass)" stroke="#6f88a8" stroke-width="4" />

  <path d="M106 330h102" stroke="#ea4f4f" stroke-width="10" stroke-linecap="round" />
  <path d="M492 330h102" stroke="#ea4f4f" stroke-width="10" stroke-linecap="round" />
  <path d="M95 347h74" stroke="#ffd39b" stroke-width="5" stroke-linecap="round" opacity="0.86" />
  <path d="M531 347h74" stroke="#ffd39b" stroke-width="5" stroke-linecap="round" opacity="0.86" />

  <rect x="240" y="314" width="220" height="44" rx="9" fill="#111722" stroke="url(#trim)" stroke-width="2" />
  <path d="M244 318h212" stroke="#f4f8ff" stroke-opacity="0.4" />

  <rect x="278" y="376" width="38" height="16" rx="6" fill="#121821" />
  <rect x="384" y="376" width="38" height="16" rx="6" fill="#121821" />

  <g>
    <circle cx="196" cy="390" r="57" fill="#171c25" />
    <circle cx="196" cy="390" r="35" fill="#73829a" />
    <circle cx="196" cy="390" r="17" fill="#e2e8f2" />
  </g>
  <g>
    <circle cx="506" cy="390" r="57" fill="#171c25" />
    <circle cx="506" cy="390" r="35" fill="#73829a" />
    <circle cx="506" cy="390" r="17" fill="#e2e8f2" />
  </g>

  <path d="M120 355c32-8 66-13 93-15m274 15c28 2 62 7 93 15" stroke="#9fb2cc" stroke-opacity="0.44" stroke-width="3" />
</svg>
